<?xml version="1.0" encoding="UTF-8" standalone="no"?><!DOCTYPE svg PUBLIC "-//W3C//DTD SVG 1.1//EN" "http://www.w3.org/Graphics/SVG/1.1/DTD/svg11.dtd"><svg width="100%" height="100%" viewBox="0 0 2084 2084" version="1.1" xmlns="http://www.w3.org/2000/svg" xmlns:xlink="http://www.w3.org/1999/xlink" xml:space="preserve" xmlns:serif="http://www.serif.com/" style="fill-rule:evenodd;clip-rule:evenodd;stroke-linejoin:round;stroke-miterlimit:2;"><g id="Livello-1" serif:id="Livello 1"><path d="M1142.35,1493.45l-0,-67.03c-0,-9.304 -9.423,-16.823 -21.034,-16.823l-126.258,0c-11.621,0 -21.056,7.519 -21.056,16.823l0,67.03l168.348,-0Z" style="fill:#2a3890;fill-rule:nonzero;"/><path d="M414.237,964.26c16.703,-207.282 194.126,-334.094 336.02,-348.11c44.19,-4.374 117.053,-7.323 164.768,-7.323l-0,-195.704c-0,0 -161.558,0 -220.089,2.438c-205.943,8.585 -503.04,223.103 -525.706,548.699l245.007,-0Z" style="fill:#ed1c24;fill-rule:nonzero;"/><path d="M435.564,1083.75c-11.817,-46.9 -14.353,-57.912 -20.174,-92.667l-247.902,-0c-4.19,21.349 -4.19,52.438 2.252,92.667l265.824,-0Z" style="fill:#fbb040;fill-rule:nonzero;"/><path d="M544.655,1289.62c-30.544,-31.099 -38.466,-40.533 -60.273,-74.168l-281.438,1.001c16.561,29.979 22.242,42.068 42.242,74.582l299.469,-1.415Z" style="fill:#8cc63f;fill-rule:nonzero;"/><path d="M931.692,1491.62l-0.511,-80.763c-74.419,0 -231.907,0.055 -251.711,0.055l-370.155,0.402c38.564,32.917 75.898,63.091 107.182,80.306l515.195,-0Z" style="fill:#2a3890;fill-rule:nonzero;"/><path d="M422.122,1523.73c23.602,13.025 204.985,86.856 304.681,86.856c142.831,0 151.286,0.109 205.737,-1.186l-0.958,-86.693l-509.46,1.023Z" style="fill:#91268f;fill-rule:nonzero;"/><path d="M920.842,862.261l0,279.426c-15.463,4.2 -44.951,8.411 -88.466,8.411c-106.726,0 -167.064,-51.937 -167.064,-139.033c0,-96.845 70.218,-154.397 183.908,-154.397c30.86,-0 53.374,1.393 71.622,5.593" style="fill:#ed1c24;fill-rule:nonzero;"/><path d="M1346.06,845.71c18.303,4.211 40.795,5.626 71.731,5.626c113.896,0 184.201,-57.661 184.201,-154.669c0,-87.172 -60.468,-139.196 -167.324,-139.196c-43.581,-0 -73.124,4.211 -88.608,8.444l-0,279.795Zm-212.287,-432.822c90.458,0 158.881,-1.632 289.632,-1.632c132.167,0 223.43,2.198 289.056,49.729c74.821,54.168 101.829,137.259 101.829,230.056c0,92.797 -30.947,171.536 -87.182,224.964c-73.091,68.89 -181.373,97.237 -307.903,97.237c-28.118,-0 -53.439,1.186 -73.145,-1.633l-0,332.691l-212.287,-0l0,-931.412Z" style="fill:#ed1c24;fill-rule:nonzero;"/><path d="M473.628,1195.94c-17.192,-26.203 -29.924,-57.313 -42.427,-86.584l-267.009,-0.805c11.186,41.371 18.542,59.347 29.804,87.704l279.632,-0.315Z" style="fill:#fff200;fill-rule:nonzero;"/><path d="M687.539,1387.99c-45.496,-19.51 -110.121,-59.75 -129.903,-77.433l-308.85,0c14.995,26.116 34.973,53.994 55.518,77.433l383.235,0Z" style="fill:#00aeef;fill-rule:nonzero;"/><path d="M971.519,1607.99l-0,-15.425c9.676,4.048 17.955,6.073 24.838,6.073c4.818,-0 8.613,-1.073 11.387,-3.219c2.773,-2.146 4.16,-5.061 4.16,-8.745c-0,-2.915 -0.871,-5.374 -2.612,-7.379c-1.741,-2.004 -5.04,-4.382 -9.898,-7.135l-6.013,-3.34c-8.056,-4.535 -13.745,-8.877 -17.065,-13.027c-3.319,-4.15 -4.979,-8.998 -4.979,-14.544c-0,-7.409 2.722,-13.361 8.168,-17.855c5.445,-4.494 12.642,-6.741 21.589,-6.741c7.166,0 15.243,1.033 24.231,3.098l-0,14.392c-9.191,-3.441 -16.458,-5.162 -21.802,-5.162c-4.129,0 -7.439,0.921 -9.929,2.764c-2.49,1.842 -3.735,4.261 -3.735,7.257c0,2.469 0.87,4.635 2.611,6.498c1.741,1.862 5.021,4.15 9.839,6.862l6.437,3.583c8.664,4.858 14.635,9.332 17.915,13.421c3.279,4.089 4.919,9.069 4.919,14.94c-0,8.34 -3.097,14.878 -9.292,19.615c-6.194,4.737 -14.737,7.105 -25.627,7.105c-7.207,0 -15.587,-1.012 -25.142,-3.036Z" style="fill:#ed1c24;fill-rule:nonzero;"/><path d="M1047.24,1608.78l-0,-89.879l56.174,0l-0,12.328l-37.47,0l0,25.081l30.729,0l0,12.025l-30.729,-0l0,27.692l40.324,0l0,12.753l-59.028,0Z" style="fill:#ed1c24;fill-rule:nonzero;"/><path d="M1143.84,1608.78l0,-77.551l-32.186,0l-0,-12.328l83.138,0l-0,12.328l-32.187,0l0,77.551l-18.765,0Z" style="fill:#ed1c24;fill-rule:nonzero;"/><path d="M1229.27,1608.78l0,-77.551l-32.186,0l-0,-12.328l83.138,0l0,12.328l-32.186,0l-0,77.551l-18.766,0Z" style="fill:#ed1c24;fill-rule:nonzero;"/><rect x="1292.42" y="1518.9" width="18.705" height="89.879" style="fill:#ed1c24;fill-rule:nonzero;"/><path d="M1405.06,1606.65c-11.255,2.915 -20.972,4.372 -29.15,4.372c-15.506,0 -27.419,-4.079 -35.739,-12.237c-8.32,-8.157 -12.48,-19.848 -12.48,-35.071c0,-15.101 4.16,-26.72 12.48,-34.858c8.32,-8.138 20.172,-12.207 35.557,-12.207c9.838,0 19.595,1.154 29.271,3.462l0,14.636c-11.214,-3.847 -20.425,-5.77 -27.631,-5.77c-9.515,0 -16.863,3.037 -22.045,9.11c-5.182,6.073 -7.773,14.676 -7.773,25.81c-0,10.769 2.773,19.22 8.32,25.354c5.546,6.134 13.198,9.2 22.955,9.2c2.146,0 4.656,-0.303 7.531,-0.91l-0,-29.576l18.704,0l0,38.685Z" style="fill:#ed1c24;fill-rule:nonzero;"/><path d="M1425.63,1608.78l-0,-89.879l16.457,0l41.661,61.397l-0,-61.397l15,0l-0,89.879l-16.762,0l-41.356,-61.397l-0,61.397l-15,0Z" style="fill:#ed1c24;fill-rule:nonzero;"/><path d="M1511,1608.78l34.98,-89.879l18.705,0l34.98,89.879l-19.191,0l-9.352,-23.988l-37.166,0l-9.352,23.988l-13.604,0Zm27.571,-35.951l27.936,-0l-13.968,-35.83l-13.968,35.83Z" style="fill:#ed1c24;fill-rule:nonzero;"/><path d="M1612.04,1608.78l0,-89.879l16.458,0l41.66,61.397l-0,-61.397l15,0l-0,89.879l-16.761,0l-41.357,-61.397l0,61.397l-15,0Z" style="fill:#ed1c24;fill-rule:nonzero;"/><path d="M1746.66,1611.02c-13.644,0 -24.555,-4.291 -32.733,-12.874c-8.178,-8.583 -12.267,-20.021 -12.267,-34.312c-0,-14.454 4.109,-25.931 12.328,-34.433c8.218,-8.503 19.312,-12.754 33.279,-12.754c13.887,0 24.95,4.251 33.189,12.754c8.239,8.502 12.358,19.919 12.358,34.251c0,14.656 -4.119,26.214 -12.358,34.676c-8.239,8.462 -19.504,12.692 -33.796,12.692Zm0.243,-12.388c8.016,-0 14.362,-3.148 19.038,-9.444c4.677,-6.295 7.015,-14.828 7.015,-25.597c-0,-10.445 -2.349,-18.826 -7.045,-25.142c-4.696,-6.316 -10.911,-9.474 -18.644,-9.474c-7.814,0 -14.059,3.158 -18.735,9.474c-4.676,6.316 -7.014,14.757 -7.014,25.324c0,10.486 2.328,18.917 6.984,25.294c4.656,6.376 10.79,9.565 18.401,9.565Z" style="fill:#ed1c24;fill-rule:nonzero;"/></g></svg>